<svg width="191" height="45" viewBox="0 0 191 45" fill="none" xmlns="http://www.w3.org/2000/svg">
<path d="M0.132637 0.284515L17.4988 17.6506L14.3165 0.284515H0.132637Z" fill="#A7E435"/>
<path d="M17.4988 17.6506L5.40611 44.109L31.7281 17.787L14.271 0.329941L17.4988 17.6506Z" fill="#73D900"/>
<path d="M19.0172 27.9339L17.4988 17.6052L15.553 7.13094L14.271 0.2845L24.5179 10.5314L29.2368 15.2503L26.9274 18.4871L19.0172 27.9339Z" fill="#70C900"/>
<path d="M24.5179 10.5769L31.7281 17.787L32.9555 16.5596L33.9557 1.19371L24.5179 10.5769Z" fill="#72D900"/>
<path d="M42.2023 9.4949H33.4192L33.9557 1.19371L42.2023 9.4949Z" fill="#A7E435"/>
<path d="M33.9466 1.17552L32.9646 16.5595L31.7554 17.7688L28.7004 14.7138C28.9459 14.8138 29.255 14.6411 29.2641 14.341L29.4914 5.6398L33.9466 1.17552Z" fill="#71BA00"/>
<path d="M25.1362 20.651C26.1455 19.4509 26.0727 17.6779 24.9544 16.5686L15.553 7.17638L14.2801 0.329941L28.5731 14.6229C28.6185 14.6684 28.664 14.6956 28.7095 14.7138L31.7644 17.7688L5.40611 44.109L25.1362 20.651Z" fill="#69B300"/>
<path d="M19.3445 30.1706L5.40611 44.109L19.0172 27.9339L19.3445 30.1706Z" fill="#71BA00"/>
<path d="M31.7553 17.7688L19.3445 30.1706L19.0171 27.9339L25.1453 20.651C26.1545 19.4509 26.0818 17.6779 24.9635 16.5686L15.553 7.17638L14.2801 0.329941L28.5731 14.6229C28.6185 14.6684 28.664 14.6956 28.7095 14.7138L31.7553 17.7688Z" fill="#69B300"/>
<path d="M61.8688 30.7343C60.3504 30.7343 59.0502 30.4979 57.9591 30.016C56.868 29.5342 55.8679 28.8159 54.9587 27.8612L56.8499 25.9154C57.65 26.6519 58.4228 27.1975 59.1684 27.5611C59.9139 27.9248 60.7777 28.0976 61.7688 28.0976C63.178 28.0976 64.3873 27.643 65.3875 26.7337C66.3967 25.8245 67.015 24.6607 67.2332 23.2514H59.7048V20.7329H67.215C66.9604 19.36 66.333 18.2325 65.3329 17.3506C64.3328 16.4686 63.1417 16.0322 61.7688 16.0322C60.0776 16.0322 58.4865 16.6959 56.9953 18.0234L55.3133 16.0049C56.2043 15.1594 57.159 14.5047 58.1591 14.0501C59.1593 13.5955 60.3504 13.3682 61.7415 13.3682C64.2327 13.3682 66.2967 14.2138 67.9333 15.8958C69.5608 17.587 70.3791 19.6327 70.3791 22.0513C70.3791 24.4971 69.5699 26.561 67.9424 28.2249C66.324 29.8978 64.2964 30.7343 61.8688 30.7343Z" fill="#111111"/>
<path d="M73.0977 30.4434V13.6501H76.0526V22.0967L84.0447 13.6501H87.6634L80.6806 20.8693L87.9725 30.4434H84.3993L78.6621 22.8877L76.0435 25.5699V30.4434H73.0977Z" fill="#111111"/>
<path d="M103.948 28.1885C102.284 29.8797 100.183 30.7343 97.6375 30.7343C95.0917 30.7343 93.0005 29.8978 91.3548 28.2158C89.7091 26.5337 88.8818 24.4789 88.8818 22.0513C88.8818 19.6509 89.7091 17.6052 91.373 15.914C93.0369 14.2229 95.1372 13.3682 97.683 13.3682C100.229 13.3682 102.32 14.2047 103.966 15.8867C105.611 17.5688 106.439 19.6236 106.439 22.0513C106.439 24.4425 105.611 26.4974 103.948 28.1885ZM93.5915 26.2791C94.6735 27.4429 96.0373 28.0158 97.683 28.0158C99.3287 28.0158 100.683 27.4429 101.747 26.2882C102.811 25.1335 103.338 23.7242 103.338 22.0422C103.338 20.3783 102.802 18.969 101.72 17.8052C100.638 16.6414 99.2741 16.0686 97.6285 16.0686C95.9828 16.0686 94.628 16.6414 93.5642 17.7961C92.5005 18.9508 91.9731 20.3601 91.9731 22.0422C91.9731 23.7151 92.5095 25.1244 93.5915 26.2791Z" fill="#111111"/>
<path d="M109.148 30.4434V13.6501H122.85V30.4434H119.895V16.3141H112.103V30.4434H109.148Z" fill="#111111"/>
<path d="M126.305 30.6343C125.614 30.6343 124.941 30.5434 124.269 30.3706L124.56 27.9521C124.851 28.0521 125.169 28.0976 125.523 28.0976C125.905 28.0976 126.242 28.0339 126.514 27.9157C126.796 27.7975 127.087 27.5157 127.405 27.0611C127.715 26.6156 127.969 26.0064 128.151 25.2244C128.333 24.4516 128.487 23.3696 128.615 21.9694C128.742 20.5783 128.806 18.9054 128.806 16.9596V13.6501H140.316V30.4434H137.361V16.3141H131.561V17.8234C131.561 20.4328 131.451 22.5968 131.224 24.3152C130.997 26.0337 130.651 27.3429 130.169 28.2522C129.688 29.1523 129.151 29.7796 128.551 30.1251C127.951 30.4707 127.196 30.6343 126.305 30.6343Z" fill="#111111"/>
<path d="M143.79 30.4434V13.6501H156.237V16.2868H146.736V20.6511H155.155V23.2878H146.736V27.7975H156.355V30.4343H143.79V30.4434Z" fill="#111111"/>
<path d="M159.001 30.4434V13.6501H161.956V22.0967L169.948 13.6501H173.567L166.584 20.8693L173.876 30.4434H170.303L164.565 22.8877L161.947 25.579V30.4525H159.001V30.4434Z" fill="#111111"/>
<path d="M183.323 30.7343C180.895 30.7343 178.858 29.8978 177.231 28.2249C175.603 26.5519 174.785 24.4971 174.785 22.0513C174.785 19.6236 175.603 17.5688 177.231 15.8867C178.858 14.2047 180.931 13.3682 183.441 13.3682C184.896 13.3682 186.132 13.5955 187.15 14.041C188.169 14.4865 189.123 15.1412 190.014 15.9868L188.123 18.1689C186.623 16.7778 185.05 16.0777 183.423 16.0777C181.822 16.0777 180.504 16.6505 179.449 17.8052C178.404 18.9599 177.876 20.3692 177.876 22.0513C177.876 23.7151 178.404 25.1244 179.458 26.2882C180.513 27.452 181.831 28.0248 183.414 28.0248C184.377 28.0248 185.223 27.843 185.959 27.4884C186.696 27.1247 187.45 26.5792 188.241 25.8427L190.133 27.7612C189.187 28.7522 188.187 29.4978 187.132 29.9888C186.087 30.4797 184.814 30.7343 183.323 30.7343Z" fill="#111111"/>
</svg>
